<svg xmlns="http://www.w3.org/2000/svg" width="512" height="512" viewBox="0 0 512 512">
<g>
<path d="M 0.00 480.20 L 0.00 429.15 L 2.50 426.19 C3.87,424.55 6.12,422.94 7.50,422.59 L 10.00 421.96 L 10.00 405.73 C10.01,391.42 10.24,389.12 11.95,386.31 C14.38,382.33 18.72,381.02 29.50,381.00 C51.46,380.97 74.64,374.75 106.00,360.47 C123.95,352.30 137.12,347.50 148.00,345.19 C189.07,336.44 222.64,348.30 248.99,380.86 C253.07,385.89 256.68,389.66 257.02,389.25 C257.36,388.84 259.92,385.58 262.72,382.00 C272.16,369.90 286.59,357.70 298.50,351.74 C317.46,342.25 340.55,339.97 364.98,345.19 C377.23,347.80 384.44,350.43 407.06,360.54 C437.60,374.19 456.92,379.66 478.00,380.62 C490.55,381.18 496.54,381.28 499.40,384.32 C502.01,387.10 502.01,392.34 502.00,402.64 C502.00,403.26 502.00,403.91 502.00,404.57 L 502.00 421.84 L 504.99 422.50 C506.63,422.86 508.88,424.30 509.99,425.71 L 512.00 428.27 L 512.00 481.15 L 509.08 484.08 L 506.15 487.00 L 296.45 487.00 L 294.59 490.46 C290.10,498.80 275.19,509.66 266.00,511.28 C265.98,511.29 265.97,511.29 265.97,511.29 C265.97,511.53 320.25,511.79 387.75,511.86 L 512.00 512.00 L 0.00 512.00 L 124.75 511.90 C193.36,511.84 248.15,511.47 246.50,511.07 C236.43,508.62 225.32,501.02 219.54,492.62 L 215.67 487.00 L 6.80 487.00 ZM 0.00 0.00 L 512.00 0.00 L 387.25 0.13 C310.95,0.21 265.41,0.60 270.00,1.13 C294.69,3.98 317.54,15.45 335.19,33.83 C355.76,55.25 366.00,80.56 366.00,110.00 C366.00,135.27 359.13,155.44 343.01,177.50 C327.11,199.25 321.92,206.93 319.23,212.67 L 316.50 218.50 L 315.50 295.07 L 290.34 320.00 L 222.65 320.00 L 209.58 307.03 L 196.50 294.06 L 195.50 216.50 L 192.62 211.00 C188.94,203.99 186.02,199.72 173.15,182.50 C161.52,166.96 153.44,151.64 150.14,138.87 C143.20,112.08 145.81,85.56 157.76,61.50 C174.09,28.60 206.21,5.72 242.50,1.14 C246.85,0.59 202.26,0.21 124.75,0.13 L 0.00 0.00 ZM 215.00 214.75 L 216.20 220.00 L 246.00 220.00 L 246.00 133.54 L 236.27 123.77 C227.21,114.68 226.55,113.73 226.55,110.00 C226.55,104.22 230.45,100.50 236.51,100.50 C240.76,100.50 241.38,100.90 248.73,108.24 L 256.47 115.99 L 264.26 108.24 C271.69,100.85 272.26,100.50 276.61,100.50 C282.56,100.50 286.00,104.06 286.00,110.20 C286.00,114.04 285.38,114.92 276.00,124.45 L 266.00 134.61 L 266.00 220.00 L 296.74 220.00 L 297.38 216.01 C299.05,205.59 305.99,193.52 324.44,169.00 C339.13,149.47 344.76,135.17 345.70,115.00 C346.62,95.53 342.72,79.37 333.35,63.82 C303.59,14.43 236.08,5.52 194.14,45.44 C162.64,75.42 157.32,123.34 181.49,159.38 C184.48,163.85 191.24,173.35 196.50,180.50 C206.62,194.25 213.01,206.08 215.00,214.75 ZM 246.50 489.61 C252.77,492.58 259.87,492.70 266.00,489.92 C272.25,487.09 275.65,483.58 279.51,475.95 C281.65,471.72 283.76,468.98 285.46,468.20 C287.45,467.29 312.84,467.00 390.05,467.00 L 492.00 467.00 L 492.00 441.95 L 281.50 442.50 L 276.73 444.85 C273.94,446.22 269.81,449.68 266.73,453.21 C263.86,456.53 260.42,459.65 259.11,460.15 C255.07,461.68 250.49,459.43 246.57,453.97 C242.11,447.76 236.92,444.31 230.09,443.02 C226.67,442.37 187.57,442.00 122.36,442.00 L 20.00 442.00 L 20.00 467.00 L 122.87 467.00 C225.13,467.00 225.75,467.01 228.34,469.05 C229.78,470.19 231.89,473.22 233.03,475.80 C235.76,481.99 240.36,486.70 246.50,489.61 ZM 266.00 419.57 C266.00,423.65 266.11,426.99 266.25,426.99 C266.39,426.98 269.42,425.97 273.00,424.74 L 279.50 422.50 L 380.75 422.22 L 482.00 421.95 L 482.00 401.28 L 473.25 400.59 C453.97,399.07 431.89,393.19 410.66,383.90 C372.77,367.33 365.05,364.68 349.44,362.94 C318.53,359.50 292.03,373.21 272.13,402.97 L 266.00 412.13 ZM 244.00 426.06 C244.82,426.54 245.61,426.95 245.75,426.97 C245.89,426.99 246.00,423.44 246.00,419.08 C246.00,411.23 245.96,411.11 240.83,403.33 C234.53,393.79 217.53,376.71 209.82,372.18 C196.81,364.53 179.77,361.13 163.64,362.94 C148.76,364.62 134.93,369.05 113.50,379.00 C85.10,392.19 62.14,398.86 39.25,400.59 L 30.00 401.29 L 30.00 422.00 L 128.54 422.00 C214.75,422.00 228.05,422.20 234.79,423.59 C239.03,424.47 243.18,425.58 244.00,426.06 ZM 216.00 240.00 L 216.00 260.00 L 296.00 260.00 L 296.00 240.00 ZM 223.22 292.73 L 230.45 300.00 L 282.45 300.00 L 289.22 293.28 C294.85,287.70 296.00,286.00 296.00,283.28 L 296.00 280.00 L 216.00 280.00 L 216.00 282.73 C216.00,284.77 217.80,287.27 223.22,292.73 ZM 135.03 46.48 C133.73,47.15 132.82,47.65 131.86,47.83 C129.37,48.28 126.49,46.59 115.60,40.18 C115.28,39.98 114.94,39.78 114.60,39.58 C106.74,34.96 104.98,33.46 104.03,30.60 C103.13,27.88 103.20,26.45 104.37,23.67 C107.42,16.36 113.69,16.06 125.30,22.67 C137.50,29.63 138.84,30.74 140.08,34.89 C141.49,39.59 139.49,44.18 135.03,46.48 ZM 395.27 41.46 C383.70,48.20 381.57,48.75 377.31,46.09 C373.47,43.70 372.00,41.18 372.00,36.99 C372.00,32.78 375.33,29.64 386.62,23.20 C397.90,16.77 402.38,16.29 406.41,21.08 C409.56,24.82 409.80,29.71 407.02,33.25 C405.93,34.63 400.64,38.33 395.27,41.46 ZM 428.08 117.08 L 425.15 120.00 L 411.59 120.00 C398.04,120.00 398.03,120.00 394.79,117.10 C390.41,113.19 390.20,107.34 394.30,103.25 C397.04,100.50 397.05,100.50 411.61,100.50 L 426.17 100.50 L 428.59 103.31 C432.13,107.42 431.91,113.24 428.08,117.08 ZM 118.08 117.08 L 115.15 120.00 L 101.59 120.00 C88.04,120.00 88.03,120.00 84.79,117.10 C80.41,113.19 80.20,107.34 84.30,103.25 C87.04,100.50 87.05,100.50 101.61,100.50 L 116.17 100.50 L 118.59 103.31 C122.13,107.42 121.91,113.24 118.08,117.08 ZM 127.50 196.07 C115.30,203.14 113.54,203.62 109.00,201.16 C104.21,198.56 102.30,193.62 104.27,188.90 C105.43,186.13 107.72,184.34 116.63,179.25 C129.15,172.09 133.40,171.31 137.50,175.41 C140.98,178.89 141.53,182.26 139.35,186.61 C137.89,189.51 135.39,191.51 127.50,196.07 ZM 406.25 198.95 C403.17,202.29 399.61,203.37 396.25,201.99 C391.03,199.84 374.93,189.74 373.53,187.74 C369.35,181.77 374.15,173.00 381.61,173.00 C386.07,173.00 403.66,182.49 406.95,186.66 C409.89,190.40 409.61,195.31 406.25,198.95 Z" fill="rgb(0,0,0)"/>
</g>
</svg>