<svg width="512" height="512" viewBox="0 0 512 512" xmlns="http://www.w3.org/2000/svg">

  <defs>
    <filter id="glowMaster" x="-50%" y="-50%" width="200%" height="200%">
      <feGaussianBlur stdDeviation="10" result="coloredBlur"/>
      <feMerge>
        <feMergeNode in="coloredBlur"/>
        <feMergeNode in="SourceGraphic"/>
      </feMerge>
    </filter>

    <radialGradient id="bulbGlowMaster">
      <stop offset="0%" style="stop-color:#fbbf24; stop-opacity:1" />
      <stop offset="50%" style="stop-color:#14b8a6; stop-opacity:0.8" />
      <stop offset="100%" style="stop-color:#0f766e; stop-opacity:0.6" />
    </radialGradient>
  </defs>

  <circle cx="256" cy="256" r="240" fill="#0f172a"/>

  <g>

    <!-- BULB BASE -->
    <path d="M 0.00 480.20 L 0.00 429.15 L 2.50 426.19 C3.87,424.55 6.12,422.94 7.50,422.59 L 10.00 421.96 L 10.00 405.73 C10.01,391.42 10.24,389.12 11.95,386.31 C14.38,382.33 18.72,381.02 29.50,381.00 C51.46,380.97 74.64,374.75 106.00,360.47 C123.95,352.30 137.12,347.50 148.00,345.19 C189.07,336.44 222.64,348.30 248.99,380.86 C253.07,385.89 256.68,389.66 257.02,389.25 C257.36,388.84 259.92,385.58 262.72,382.00 C272.16,369.90 286.59,357.70 298.50,351.74 C317.46,342.25 340.55,339.97 364.98,345.19 C377.23,347.80 384.44,350.43 407.06,360.54 C437.60,374.19 456.92,379.66 478.00,380.62 C490.55,381.18 496.54,381.28 499.40,384.32 C502.01,387.10 502.01,392.34 502.00,402.64 L 502.00 421.84 L 504.99,422.50 C506.63,422.86 508.88,424.30 509.99,425.71 L 512.00 428.27 L 512.00 481.15 L 509.08 484.08 L 506.15 487.00 L 296.45 487.00 L 294.59 490.46 C290.10,498.80 275.19,509.66 266.00,511.28 L 246.50 511.07 C236.43,508.62 225.32,501.02 219.54,492.62 L 215.67 487.00 L 6.80 487.00 L 0.00 480.20 Z" fill="#14b8a6"/>

    <g stroke="#ccfbf1" stroke-width="14" stroke-linecap="round">
      <path d="M 500 435 L 10 435" />
    </g>

    <!-- STEM (ADDED) -->
    <path d="M 226 236 
             C 226 220 286 220 286 236
             L 286 275
             C 286 295 226 295 226 275
             Z"
          fill="#0f766e"/>

    <g stroke="#5eead4" stroke-width="6" stroke-linecap="round">
      <path d="M 236 235 L 276 235" />
      <path d="M 236 255 L 276 255" />
      <path d="M 236 275 L 276 275" />
    </g>

    <!-- BULB GLASS -->
    <path d="M 215.00 214.75 L 216.20 220.00 L 246.00 220.00 L 246.00 133.54 L 236.27 123.77 C227.21,114.68 226.55,113.73 226.55,110.00 C226.55,104.22 230.45,100.50 236.51,100.50 C240.76,100.50 241.38,100.90 248.73,108.24 L 256.47,115.99 L 264.26,108.24 C271.69,100.85 272.26,100.50 276.61,100.50 C282.56,100.50 286.00,104.06 286.00,110.20 C286.00,114.04 285.38,114.92 276.00,124.45 L 266.00,134.61 L 266.00,220.00 L 296.74,220.00 L 297.38,216.01 C299.05,205.59 305.99,193.52 324.44,169.00 C339.13,149.47 344.76,135.17 345.70,115.00 C346.62,95.53 342.72,79.37 333.35,63.82 C303.59,14.43 236.08,5.52 194.14,45.44 C162.64,75.42 157.32,123.34 181.49,159.38 C184.48,163.85 191.24,173.35 196.50,180.50 C206.62,194.25 213.01,206.08 215.00,214.75 Z"
          fill="url(#bulbGlowMaster)"
          filter="url(#glowMaster)"/>

    <!-- RAYS -->
    <path d="M 135.03 46.48 C133.73,47.15 132.82,47.65 131.86,47.83 C129.37,48.28 126.49,46.59 115.60,40.18 C106.74,34.96 104.98,33.46 104.03,30.60 C103.13,27.88 103.20,26.45 104.37,23.67 C107.42,16.36 113.69,16.06 125.30,22.67 C137.50,29.63 138.84,30.74 140.08,34.89 C141.49,39.59 139.49,44.18 135.03,46.48 Z" fill="#fbbf24"/>

    <path d="M 395.27 41.46 C383.70,48.20 381.57,48.75 377.31,46.09 C373.47,43.70 372.00,41.18 372.00,36.99 C372.00,32.78 375.33,29.64 386.62,23.20 C397.90,16.77 402.38,16.29 406.41,21.08 C409.56,24.82 409.80,29.71 407.02,33.25 C405.93,34.63 400.64,38.33 395.27,41.46 Z" fill="#fbbf24"/>

    <path d="M 428.08 117.08 L 425.15 120.00 L 411.59 120.00 C398.04,120.00 398.03,120.00 394.79,117.10 C390.41,113.19 390.20,107.34 394.30,103.25 L 411.61,100.50 L 426.17,100.50 L 428.59,103.31 C432.13,107.42 431.91,113.24 428.08,117.08 Z" fill="#fbbf24"/>

    <path d="M 118.08 117.08 L 115.15 120.00 L 101.59 120.00 C88.04,120.00 88.03,120.00 84.79,117.10 C80.41,113.19 80.20,107.34 84.30,103.25 L 101.61,100.50 L 116.17,100.50 L 118.59,103.31 C122.13,107.42 121.91,113.24 118.08,117.08 Z" fill="#fbbf24"/>

  </g>
</svg>
